<svg xmlns="http://www.w3.org/2000/svg" width="64" height="34" viewBox="0 0 64 34">
    <g fill="none" fill-rule="evenodd">
        <path fill="#1CA8EB" d="M0 0h64v34H0V0zm5 5v24h54V5H5z"/>
        <path fill="#1CA8EB" d="M7 7h50v20H7z"/>
        <path fill="#FCCD38" d="M26.414 15.321H24.56v1.003h1.75v1.32h-1.75v1.035h1.854V20H23v-6h3.414v1.321zm3.835 1.48L28.38 14h1.926l.812 1.552L32.119 14h1.926l-1.981 2.801L34.3 20h-1.902l-1.202-1.958L29.788 20h-1.886l2.347-3.199zm7.234-.048H38c.573 0 .86-.249.86-.748 0-.498-.287-.748-.86-.748h-.517v1.496zm0 3.247h-1.56v-6h2.483c.674 0 1.19.175 1.548.525.358.35.537.844.537 1.48 0 .637-.18 1.13-.537 1.48-.359.35-.874.526-1.548.526h-.923V20z"/>
    </g>
</svg>
