<svg xmlns="http://www.w3.org/2000/svg" width="141" height="162" viewBox="0 0 141 162">
    <g fill="none" fill-rule="evenodd">
        <path fill="#FFF" fill-rule="nonzero" d="M122.398 16.743a3.35 3.35 0 0 1-.628 1.968h-.179c-.478.417-1.134.626-1.97.626-.714 0-1.311-.209-1.79-.626h-.178c-.478-.537-.716-1.193-.716-1.968 0-.895.24-1.55.716-1.968.596-.596 1.252-.895 1.968-.895.777 0 1.433.299 1.97.895.537.358.807 1.014.807 1.968zm-2.775-1.074c-.297 0-.565.119-.803.358-.061.12-.092.358-.092.716l.092.716h.089c.179.118.417.179.714.179.358 0 .628-.06.805-.18h.09l.09-.715c0-.417-.06-.655-.18-.716-.238-.238-.506-.358-.805-.358zM97.168 1.624c.358.118.626.327.805.626.417.834.238 1.431-.537 1.79l-6.262 3.399c3.995 2.088 7.722 4.861 11.183 8.32 8.706 8.708 13.061 19.324 13.061 31.849 0 2.326-.179 4.682-.537 7.067-.118.777-.565 1.163-1.342 1.163h-1.075c-1.372 9.007-5.398 16.76-12.077 23.26l-.984 1.074 2.236 3.042c1.61 2.147 2.416 3.995 2.416 5.546 0 .657-.267 1.253-.804 1.79 1.251 2.267 3.428 3.877 6.53 4.83a8.897 8.897 0 0 1 2.683-3.578l.805-.626c.836-.537 1.552-.895 2.147-1.074l.537-.268.537-.09c.299-.178.628-.268.986-.268 2.145-.506 3.934-.596 5.724-.358 1.492 0 2.803.18 3.936.537 1.907.657 3.25 1.61 4.026 2.863.716 1.431 1.075 4.861 1.075 10.288 0 2.446-.06 4.115-.18 5.01-.18 1.907-.507 3.162-.985 3.757l-.536.716-.358.358c-1.312 1.073-3.43 1.7-6.352 1.879l-2.326.179c-1.433 0-2.714-.358-3.847-1.074l-2.773.447c-7.397.895-13.749-1.759-19.056-7.962a1084.195 1084.195 0 0 1 1.61 32.475l.09 20.219h27.465c.895 0 1.342.447 1.342 1.342 0 .357-.118.685-.356.984a1.549 1.549 0 0 1-.986.358h-99.84c-.358 0-.655-.12-.895-.358-.299-.3-.447-.627-.447-.984 0-.895.447-1.342 1.342-1.342h18.608c-.061-4.295-.03-11.035.09-20.219.296-11.63.804-22.425 1.52-32.385-5.904 7.039-13.18 9.513-21.829 7.425a6.892 6.892 0 0 1-3.757 1.074l-2.416-.18c-2.923-.178-5.011-.776-6.262-1.789l-.986-1.073c-.478-.716-.803-1.999-.984-3.847-.118-.895-.179-2.566-.179-5.01 0-5.547.358-8.977 1.074-10.288.835-1.253 2.177-2.206 4.025-2.863 1.194-.358 2.536-.537 4.026-.537 1.61-.238 3.371-.148 5.279.269l2.147.536c.655.21 1.431.568 2.326 1.163l.894.716a8.865 8.865 0 0 1 2.684 3.579c3.042-.954 5.22-2.564 6.531-4.831-.539-.537-.805-1.133-.805-1.79 0-1.55.776-3.369 2.326-5.457l2.236-3.042-1.163-1.252c-6.081-6.084-9.9-13.12-11.449-21.113l-1.431-.269c-.598-.118-.956-.447-1.076-.984-.655-3.1-.984-6.114-.984-9.035 0-12.464 4.414-23.082 13.24-31.85C47.542 7.052 58.1 2.699 70.504 2.699c5.548 0 10.646.804 15.3 2.415l-1.164-2.774c-.178-.298-.178-.626 0-.984.119-.357.358-.595.716-.715.297-.18.626-.18.984 0 .358.12.596.358.714.715l1.88 4.295 7.158-3.937c.3-.179.66-.21 1.077-.09zM87.685 8.78c-5.19-2.326-10.916-3.49-17.179-3.49-11.689 0-21.62 4.116-29.79 12.347-8.29 8.291-12.434 18.28-12.434 29.97 0 2.445.24 4.95.715 7.514l1.432.269c22.306 2.983 39.99-4.772 53.05-23.26l2.504-3.579c.537-.775 1.163-.895 1.879-.358.776.537.895 1.163.358 1.879l-2.147 3.131c2.743 11.63 9.393 18.191 19.95 19.682 1.55.179 3.28.268 5.187.268h1.163c.24-1.67.358-3.517.358-5.546 0-11.69-4.085-21.679-12.258-29.97-3.935-3.937-8.17-6.889-12.704-8.857h-.084zM98.42 77.309c6.263-6.142 10.02-13.3 11.273-21.47l-4.026-.359c-11.035-1.551-18.25-8.082-21.65-19.592C70.716 53.244 53.33 60.7 31.86 58.254c1.61 7.157 5.16 13.508 10.646 19.055l4.473 3.847.18.179.18.09 2.863 2.147 3.041 1.61.267.09 3.49 1.52 1.522.448.714.357h.09c7.754 2.028 15.388 1.969 22.903-.179l5.724-2.326 1.88-1.073a27.676 27.676 0 0 0 4.74-3.22l2.237-1.79 1.61-1.7zm-14.224-9.304H56.82c.478 2.863 1.759 5.337 3.845 7.425 2.625 2.625 5.876 3.937 9.752 3.937 3.936 0 7.216-1.312 9.84-3.937 2.15-2.086 3.461-4.562 3.939-7.425zm44.552 25.855c-.358-.775-1.163-1.342-2.417-1.7-.895-.238-1.997-.388-3.31-.447l-4.831.179-.448.089-.089.09h-.09l-.357.357c-.716.657-1.074 1.938-1.074 3.847v.716c0 3.162-.091 5.636-.268 7.425.059.956.268 1.91.626 2.863l.18.537c.418 1.372 1.074 2.446 1.969 3.22h.09l.18.18c.895.595 2.444.835 4.652.715 2.505-.238 4.115-.656 4.831-1.252l.179-.18.268-.357c.18-.179.389-1.043.627-2.594l.09-4.742c0-5.069-.271-8.052-.808-8.946zm-16.73 3.4l-.178 1.252v.358l-.09.536c0 1.79.149 2.863.448 3.221.178.179.536.33 1.073.447l.268-8.767a6.125 6.125 0 0 0-1.52 2.952zm-2.773 1.162v-.447c-3.818-1.133-6.591-3.162-8.32-6.083-.894.24-2.326.508-4.292.805-2.865.477-4.591 1.014-5.189 1.61.358.537 1.045 1.283 2.058 2.237 1.968 1.67 2.95 2.982 2.95 3.936 0 .417-.207.836-.626 1.252 5.128 7.397 11.39 10.647 18.787 9.752l.805-.179c-.537-.716-.984-1.61-1.342-2.684l-.179-.537a102.841 102.841 0 0 1-.538-2.326c-1.55-.179-2.625-.655-3.22-1.431-.717-.895-1.074-2.535-1.074-4.92l.18-.985zm-9.751-13.598l-2.147-2.863-1.074.895c-2.029 1.61-3.757 2.804-5.189 3.578l-1.608.895-14.495 20.04 7.962-2.774c4.89-1.67 8.261-3.041 10.11-4.115l.357-.268-1.7-1.7c-1.97-1.848-2.952-3.25-2.952-4.205 0-1.968 2.477-3.34 7.426-4.115 2.206-.358 3.786-.777 4.74-1.253l.447-.268c.002-.895-.625-2.178-1.877-3.847zm-16.372 5.1l-.091.089a3.14 3.14 0 0 0-.803.268l-7.249 5.905 3.131 2.236 6.531-9.035-1.519.536zm-9.572 7.425l-2.503 2.057c-.358.3-.747.3-1.163 0l-2.416-2.057-3.76 1.968L70.6 108.8l6.442-8.857-3.491-2.594zm-1.7 20.666h-.09c-.238-.358-.595-.537-1.073-.537s-.864.179-1.163.537c-.358.238-.537.626-.537 1.163 0 .536.149.925.447 1.163.777.715 1.55.715 2.326 0 .358-.238.537-.627.537-1.163 0-.537-.148-.925-.447-1.163zm.447-6.978l-.537.894c-.238.299-.595.507-1.073.626-.478 0-.864-.209-1.163-.626l-.626-.894-11.63-3.937c-4.592-1.61-7.605-2.802-9.036-3.578a873.152 873.152 0 0 0-1.61 33.817h48.04c-.416-11.75-.983-23.023-1.697-33.817-1.492.776-4.504 1.968-9.038 3.578l-11.63 3.937zm1.79 8.14c0 1.074-.357 1.88-1.074 2.416-.596.596-1.372.895-2.326.895-1.013 0-1.848-.299-2.505-.895-.655-.596-.984-1.4-.984-2.415 0-1.013.358-1.849 1.073-2.505.598-.596 1.373-.895 2.328-.895 1.013 0 1.82.299 2.416.895.714.656 1.071 1.492 1.071 2.505zm-1.074 13.688c-.655.657-1.431.985-2.326.985s-1.73-.328-2.505-.985c-.655-.656-.984-1.49-.984-2.504 0-.954.358-1.76 1.073-2.416.598-.657 1.403-.984 2.418-.984 1.014 0 1.82.358 2.415 1.073.657.537.984 1.312.984 2.327-.002 1.073-.36 1.909-1.075 2.504zm-1.163-3.578a1.44 1.44 0 0 0-1.161-.537c-.537 0-.925.149-1.163.447a1.443 1.443 0 0 0-.537 1.164c0 .536.148.925.447 1.163.777.774 1.55.774 2.326 0 .358-.238.537-.627.537-1.163-.002-.478-.15-.834-.45-1.074zm2.863 19.503H66.48v10.02h8.233v-10.02zm4.83 0h-2.236v10.02h17.535l-.09-18.788h-48.22c-.118 8.53-.15 14.792-.09 18.788h17.354v-10.02h-1.878c-.895 0-1.342-.448-1.342-1.342 0-.895.447-1.342 1.342-1.342h17.626c.894 0 1.342.447 1.342 1.342 0 .358-.12.685-.358.984a1.544 1.544 0 0 1-.984.358zm54.752 10.02c.894 0 1.342.447 1.342 1.342 0 .357-.118.685-.358.984a1.54 1.54 0 0 1-.984.358h-2.684c-.895 0-1.342-.448-1.342-1.342 0-.895.447-1.342 1.342-1.342h2.684zM66.66 12.538c.118.834-.268 1.312-1.163 1.432-7.635 1.014-14.133 4.235-19.501 9.662-2.267 2.326-4.056 4.621-5.368 6.888-.18.478-.567.716-1.163.716a.856.856 0 0 1-.626-.268 1.43 1.43 0 0 1-.628-.806.988.988 0 0 1 .18-.984 36.727 36.727 0 0 1 5.724-7.425C49.962 15.848 57 12.39 65.231 11.375c.832-.118 1.312.269 1.43 1.163zM36.333 36.335c-.835-.417-1.043-1.012-.626-1.789l.09-.268c.296-.716.864-1.015 1.7-.895.833.299 1.132.864.894 1.7l-.269.626c-.298.537-.715.805-1.252.805l-.537-.179zm22.455 53.857l-.357-.09-.895-.358-.803-.178 5.993 8.32 3.31-1.79-6.799-5.815c-.18 0-.33-.03-.449-.09zm11.72 7.336l7.962-6.442c-5.187.836-10.437.836-15.745 0l7.783 6.442zM45.727 83.572l-1.968-1.521-2.058 2.773c-1.193 1.551-1.79 2.863-1.79 3.936-.117 0 0 .061.359.18.953.477 2.533.894 4.74 1.252 4.95.775 7.425 2.147 7.425 4.115 0 .956-.984 2.326-2.953 4.115l-1.698 1.79.357.268c1.85 1.074 5.219 2.446 10.109 4.115l8.051 2.774-14.224-19.772-3.22-1.789c-.477-.297-1.52-1.043-3.13-2.236zm3.936 10.735c-.597-.596-2.295-1.133-5.101-1.61-1.968-.3-3.398-.566-4.292-.805-1.73 2.923-4.504 4.95-8.32 6.083v.447l.18.984c0 2.386-.358 4.026-1.075 4.92-.596.777-1.671 1.253-3.22 1.432 0 .3-.18 1.074-.537 2.326-.3 1.074-.777 2.147-1.432 3.221 7.812 1.311 14.314-1.879 19.501-9.573-.417-.416-.626-.833-.626-1.252 0-.954 1.013-2.296 3.042-4.026.896-.894 1.522-1.61 1.88-2.147zm-26.66-2.415l-4.74-.18c-1.372.06-2.504.21-3.399.448-1.252.358-2.058.925-2.416 1.7-.538.894-.805 3.877-.805 8.946l.09 4.742c.179 1.372.388 2.267.626 2.683l.539.537c.714.537 2.295.925 4.74 1.163 2.146.12 3.667-.118 4.562-.715l.358-.18c1.012-.774 1.73-2.027 2.147-3.757a9.905 9.905 0 0 0 .626-2.863c-.179-1.789-.266-4.263-.266-7.425v-.716c0-1.848-.358-3.13-1.076-3.847l-.179-.179-.358-.268h-.09l-.359-.09zm4.652 2.415l.267 8.767c.537-.118.895-.268 1.075-.447.297-.358.448-1.431.448-3.22l-.092-.537v-.358l-.179-1.253a6.107 6.107 0 0 0-1.519-2.952zM6.9 158.81h9.751c.895 0 1.342.447 1.342 1.342 0 .894-.447 1.342-1.342 1.342H6.9c-.358 0-.626-.12-.805-.358-.297-.3-.447-.627-.447-.984 0-.895.416-1.342 1.252-1.342z"/>
        <path stroke="#FFCE33" stroke-width="2" d="M7.81 145.36v.653l-1.858.413-1.193-.397-.187-.375c-.324-.337-.461-.801-.461-1.337 0-.519.164-.979.517-1.305.338-.477.805-.769 1.377-.769.555 0 1.04.271 1.51.738l.118.117.074.149c.308.623.372.771.372 1.07 0 .382-.089.737-.268 1.044z"/>
        <path stroke="#FFCE33" d="M109.335 133.939a1.306 1.306 0 0 0-.805-.268c-.238 0-.507.09-.804.268l-.18.805.18.716h.09c.297.179.536.268.714.268.298 0 .567-.09.805-.268h.09l.09-.716c-.001-.417-.062-.685-.18-.805z"/>
        <path fill="#FFCE33" stroke="#FFCE33" d="M8.6 45.192c.179.358.268.565.268.626l-.268.537c-.24.238-.447.358-.626.358H5.556v2.237c0 .298-.059.508-.179.626-.18.179-.417.268-.715.268-.297 0-.478-.09-.537-.268-.24-.18-.358-.387-.358-.626v-2.237H1.53c-.178 0-.388-.118-.626-.358-.18-.059-.268-.238-.268-.537 0-.298.09-.506.268-.626a.86.86 0 0 1 .626-.268h2.237v-2.416c0-.238.118-.447.358-.626l.537-.268c.18 0 .417.089.715.268.118.118.18.327.18.626v2.416h2.417a.86.86 0 0 1 .626.268z"/>
        <g stroke="#FFCE33">
            <path d="M126.44 74.613l-.357-2.416c-.358-.357-1.312-.595-2.863-.715h-2.147l-.358 1.52c-.059.478 0 1.105.18 1.88.18.776.715 1.52 1.61 2.236l1.878 1.073c1.91.716 3.46.926 4.654.627.596-.3.925-.478.984-.537l-.895-.358c-1.313-.655-2.208-1.759-2.685-3.31z"/>
            <path fill="#FFCE33" d="M131.524 76.013l-.091.268c-.596.955-1.55 1.671-2.863 2.147l-.447.09c1.55.357 3.042.357 4.473 0 2.147-.655 3.637-1.849 4.473-3.579l-4.83.09c-.058.059-.296.388-.715.984z"/>
        </g>
        <g stroke="#1CA8EB">
            <path d="M22.507 124.278l1.455-1.96c0-.507-.506-1.35-1.518-2.531l-1.518-1.518-1.329.822c-.38.296-.78.78-1.2 1.456-.423.676-.571 1.58-.445 2.72l.57 2.087c.844 1.856 1.792 3.1 2.848 3.733.632.21.992.317 1.075.317l-.38-.886c-.465-1.392-.317-2.805.442-4.24z"/>
            <path fill="#1CA8EB" d="M25.131 129.65l-.254.125c-1.097.254-2.277.086-3.543-.506l-.38-.253c.844 1.348 1.899 2.404 3.164 3.163 1.981 1.055 3.879 1.265 5.693.632l-3.479-3.353c-.082.002-.483.066-1.2.192z"/>
        </g>
        <path fill="#1CA8EB" stroke="#1CA8EB" d="M135.279 35.351c.18 0 .417.09.716.269.118.118.179.327.179.626v2.415h2.504c.24 0 .448.09.627.269.18.358.268.565.268.626l-.268.537c-.238.238-.448.358-.627.358h-2.504v2.326c0 .298-.06.506-.18.626-.178.179-.416.268-.715.268-.297 0-.478-.09-.537-.268-.238-.18-.358-.388-.358-.626V40.45h-2.145c-.18 0-.388-.119-.628-.358-.179-.06-.267-.238-.267-.537 0-.299.09-.506.267-.626a.863.863 0 0 1 .628-.269h2.145v-2.415c0-.238.12-.447.358-.626l.537-.269z"/>
        <path stroke="#1CA8EB" stroke-width="2" d="M21.035 13.164c-.657 0-1.224.24-1.7.716-.417.417-.626.984-.626 1.7 0 .657.208 1.193.626 1.61.478.478 1.043.716 1.7.716a2.32 2.32 0 0 0 1.7-.716c.417-.417.626-.953.626-1.61 0-.716-.207-1.281-.626-1.7-.476-.476-1.045-.716-1.7-.716z"/>
        <path stroke="#FFF" stroke-width="2" d="M10.3 75.878c.536-.596 1.16-.895 1.878-.895.836 0 1.55.299 2.147.895.537.477.806 1.104.806 1.878 0 .657-.24 1.283-.716 1.88l-.09.178c-.656.478-1.372.716-2.147.716-.595 0-1.193-.238-1.789-.716l-.09-.179c-.536-.537-.805-1.163-.805-1.879 0-.774.269-1.4.806-1.878z"/>
        <path stroke="#1CA8EB" stroke-width="2" d="M133.847 143.243c1.135 0 2.089.417 2.865 1.253.834.774 1.25 1.758 1.25 2.952 0 1.132-.416 2.117-1.25 2.952-.835.777-1.79 1.163-2.865 1.163-1.012 0-1.996-.386-2.95-1.163-.836-.954-1.252-1.938-1.252-2.952 0-1.133.416-2.119 1.252-2.952.832-.834 1.818-1.253 2.95-1.253z"/>
    </g>
</svg>
