<svg xmlns="http://www.w3.org/2000/svg" width="59" height="48" viewBox="0 0 59 48">
    <path fill="#1CA8EB" fill-rule="nonzero" d="M29.053 0c4.52 0 9.066 1.724 12.513 5.171 2.563 2.563 4.117 5.743 4.776 9.06 6.69 1.297 11.763 7.139 11.763 14.19 0 8-6.526 14.526-14.526 14.526h-6.947a1.895 1.895 0 1 1 0-3.79h6.947a10.708 10.708 0 0 0 10.737-10.736c0-5.62-4.275-10.2-9.75-10.697a1.895 1.895 0 0 1-1.698-1.658 13.87 13.87 0 0 0-3.986-8.23c-2.72-2.72-6.268-4.046-9.83-4.046-3.56 0-7.087 1.323-9.809 4.046a13.903 13.903 0 0 0-3.986 11.506 1.895 1.895 0 0 1-1.875 2.132h-.75c-4.932 0-8.843 3.91-8.843 8.842 0 4.931 3.911 8.842 8.843 8.842h8.842a1.895 1.895 0 1 1 0 3.79h-8.842C5.666 42.947 0 37.28 0 30.315c0-6.574 5.064-11.925 11.487-12.513-.03-4.572 1.594-9.154 5.072-12.632A17.625 17.625 0 0 1 29.053 0zm0 21.474c.631 0 .965.203 1.282.493l6.948 6.316c.802.744.788 1.953.118 2.684-.67.732-1.949.784-2.684.119l-3.77-3.435v18.454a1.895 1.895 0 1 1-3.79 0V27.651l-3.769 3.435c-.735.665-1.976.575-2.684-.119-.747-.731-.61-2.01.118-2.684l6.948-6.316c.375-.344.65-.493 1.283-.493z"/>
</svg>
